<svg width="1548" height="1089" viewBox="0 0 1548 1089" fill="none" xmlns="http://www.w3.org/2000/svg">
<path d="M0 0H1455.49V1075.9C1455.49 1075.9 1730.13 1063.91 1332.99 1075.9C935.859 1087.89 0 17.9061 0 17.9061V0Z" fill="#FFF5FB"/>
<path d="M1426.72 1087.79C1429.42 1088.04 1431.86 1088.25 1434.06 1088.43H17.4934L12.0057 676.921C12.0269 676.918 12.0488 676.914 12.0716 676.91C12.3954 676.857 12.8807 676.78 13.5245 676.685C14.8122 676.493 16.734 676.228 19.2657 675.932C24.3292 675.34 31.8323 674.625 41.5815 674.136C61.08 673.158 89.5628 673.085 125.482 676.704C197.32 683.943 298.906 705.953 417.858 765.05C536.889 824.186 700.817 893.437 860.299 951.327C1019.77 1009.21 1174.84 1055.76 1276.14 1069.46C1358.36 1080.58 1402.81 1085.57 1426.72 1087.79Z" fill="#FFF5FB" stroke="#FFF5FB"/>
<path d="M1466.29 1080.48C853.895 1070.31 501.744 580.857 17.0004 580.5" stroke="#8C0054" stroke-width="3"/>
<path d="M1466.88 1080.71C853.639 1071.11 499.889 676.321 14.4917 674.919" stroke="#BE0373" stroke-width="3"/>
<path d="M1466.88 1080.71C853.639 1071.11 499.889 676.321 14.4917 674.919" stroke="#BE0373" stroke-width="3"/>
<path d="M1450 1081C845.149 1071.88 495.587 738.3 16.8409 736.305" stroke="#BE0373" stroke-width="3"/>
<path d="M1450 1081C845.149 1071.88 495.587 738.3 16.8409 736.305" stroke="#8C0054" stroke-width="3"/>
</svg>
