<svg width="215" height="797" viewBox="0 0 215 797" fill="none" xmlns="http://www.w3.org/2000/svg">
<g filter="url(#filter0_d_302_3390)">
<line x1="110" y1="14.9091" x2="117" y2="784.909" stroke="white" stroke-width="20"/>
</g>
<g filter="url(#filter1_d_302_3390)">
<ellipse cx="107.5" cy="100" rx="103.5" ry="100" fill="white"/>
<path d="M210 100C210 154.644 164.142 199 107.5 199C50.8581 199 5 154.644 5 100C5 45.356 50.8581 1 107.5 1C164.142 1 210 45.356 210 100Z" stroke="#EEEEEE" stroke-width="2"/>
</g>
<path d="M180.5 100C180.5 140.031 147.826 172.5 107.5 172.5C67.1737 172.5 34.5 140.031 34.5 100C34.5 59.9689 67.1737 27.5 107.5 27.5C147.826 27.5 180.5 59.9689 180.5 100Z" fill="#FFF5FB" stroke="#FED9EF" stroke-width="3"/>
<path d="M117.458 70.8182V129H105.157V82.4943H104.816L91.4922 90.8466V79.9375L105.896 70.8182H117.458Z" fill="#8C0054"/>
<path d="M210 399C210 453.644 164.142 498 107.5 498C50.8581 498 5 453.644 5 399C5 344.356 50.8581 300 107.5 300C164.142 300 210 344.356 210 399Z" fill="white" stroke="#FED9EF" stroke-width="2"/>
<path d="M180.5 399C180.5 439.031 147.826 471.5 107.5 471.5C67.1737 471.5 34.5 439.031 34.5 399C34.5 358.969 67.1737 326.5 107.5 326.5C147.826 326.5 180.5 358.969 180.5 399Z" fill="#FFF5FB" stroke="#FED9EF" stroke-width="3"/>
<path d="M87.0206 428V419.136L107.731 399.96C109.492 398.256 110.969 396.722 112.163 395.358C113.375 393.994 114.293 392.659 114.918 391.352C115.543 390.027 115.856 388.597 115.856 387.062C115.856 385.358 115.468 383.89 114.691 382.659C113.915 381.409 112.854 380.453 111.509 379.79C110.165 379.108 108.64 378.767 106.935 378.767C105.155 378.767 103.602 379.127 102.276 379.847C100.951 380.566 99.9278 381.598 99.2081 382.943C98.4884 384.288 98.1286 385.888 98.1286 387.744H86.4524C86.4524 383.937 87.3142 380.633 89.0376 377.83C90.7611 375.027 93.1759 372.858 96.282 371.324C99.388 369.79 102.968 369.023 107.021 369.023C111.187 369.023 114.814 369.761 117.901 371.239C121.007 372.697 123.422 374.723 125.146 377.318C126.869 379.913 127.731 382.886 127.731 386.239C127.731 388.436 127.295 390.604 126.424 392.744C125.572 394.884 124.047 397.261 121.85 399.875C119.653 402.47 116.557 405.585 112.56 409.222L104.066 417.545V417.943H128.498V428H87.0206Z" fill="#8C0054"/>
<path d="M210 697C210 751.644 164.142 796 107.5 796C50.8581 796 5 751.644 5 697C5 642.356 50.8581 598 107.5 598C164.142 598 210 642.356 210 697Z" fill="white" stroke="#FED9EF" stroke-width="2"/>
<g filter="url(#filter2_d_302_3390)">
<ellipse cx="107.5" cy="697" rx="74.5" ry="74" fill="#FFF5FB"/>
<path d="M180.5 697C180.5 737.031 147.826 769.5 107.5 769.5C67.1737 769.5 34.5 737.031 34.5 697C34.5 656.969 67.1737 624.5 107.5 624.5C147.826 624.5 180.5 656.969 180.5 697Z" stroke="#FED9EF" stroke-width="3"/>
</g>
<path d="M107.354 726.795C103.112 726.795 99.3336 726.066 96.0192 724.608C92.7237 723.131 90.1196 721.104 88.2067 718.528C86.3127 715.934 85.3374 712.941 85.2805 709.551H97.6669C97.7427 710.972 98.2067 712.222 99.0589 713.301C99.9302 714.362 101.085 715.186 102.525 715.773C103.964 716.36 105.584 716.653 107.383 716.653C109.258 716.653 110.915 716.322 112.354 715.659C113.794 714.996 114.921 714.078 115.735 712.903C116.549 711.729 116.957 710.375 116.957 708.841C116.957 707.288 116.521 705.915 115.65 704.722C114.798 703.509 113.567 702.562 111.957 701.881C110.366 701.199 108.472 700.858 106.275 700.858H100.849V691.824H106.275C108.131 691.824 109.769 691.502 111.19 690.858C112.629 690.214 113.746 689.324 114.542 688.188C115.337 687.032 115.735 685.688 115.735 684.153C115.735 682.695 115.385 681.417 114.684 680.318C114.002 679.201 113.036 678.33 111.786 677.705C110.555 677.08 109.116 676.767 107.468 676.767C105.801 676.767 104.277 677.07 102.894 677.676C101.512 678.263 100.404 679.106 99.5703 680.205C98.737 681.303 98.2919 682.591 98.2351 684.068H86.4453C86.5021 680.716 87.4586 677.761 89.3146 675.205C91.1707 672.648 93.6707 670.65 96.8146 669.21C99.9775 667.752 103.548 667.023 107.525 667.023C111.54 667.023 115.053 667.752 118.065 669.21C121.076 670.669 123.415 672.638 125.082 675.119C126.767 677.581 127.601 680.347 127.582 683.415C127.601 686.672 126.587 689.39 124.542 691.568C122.515 693.746 119.873 695.129 116.616 695.716V696.17C120.896 696.72 124.154 698.206 126.388 700.631C128.642 703.036 129.76 706.047 129.741 709.665C129.76 712.979 128.803 715.924 126.871 718.5C124.959 721.076 122.317 723.102 118.945 724.58C115.574 726.057 111.71 726.795 107.354 726.795Z" fill="#8C0054"/>
<defs>
<filter id="filter0_d_302_3390" x="96" y="14.8182" width="34.9992" height="778.182" filterUnits="userSpaceOnUse" color-interpolation-filters="sRGB">
<feFlood flood-opacity="0" result="BackgroundImageFix"/>
<feColorMatrix in="SourceAlpha" type="matrix" values="0 0 0 0 0 0 0 0 0 0 0 0 0 0 0 0 0 0 127 0" result="hardAlpha"/>
<feOffset dy="4"/>
<feGaussianBlur stdDeviation="2"/>
<feComposite in2="hardAlpha" operator="out"/>
<feColorMatrix type="matrix" values="0 0 0 0 0 0 0 0 0 0 0 0 0 0 0 0 0 0 0.25 0"/>
<feBlend mode="normal" in2="BackgroundImageFix" result="effect1_dropShadow_302_3390"/>
<feBlend mode="normal" in="SourceGraphic" in2="effect1_dropShadow_302_3390" result="shape"/>
</filter>
<filter id="filter1_d_302_3390" x="0" y="0" width="215" height="208" filterUnits="userSpaceOnUse" color-interpolation-filters="sRGB">
<feFlood flood-opacity="0" result="BackgroundImageFix"/>
<feColorMatrix in="SourceAlpha" type="matrix" values="0 0 0 0 0 0 0 0 0 0 0 0 0 0 0 0 0 0 127 0" result="hardAlpha"/>
<feOffset dy="4"/>
<feGaussianBlur stdDeviation="2"/>
<feComposite in2="hardAlpha" operator="out"/>
<feColorMatrix type="matrix" values="0 0 0 0 0 0 0 0 0 0 0 0 0 0 0 0 0 0 0.25 0"/>
<feBlend mode="normal" in2="BackgroundImageFix" result="effect1_dropShadow_302_3390"/>
<feBlend mode="normal" in="SourceGraphic" in2="effect1_dropShadow_302_3390" result="shape"/>
</filter>
<filter id="filter2_d_302_3390" x="29" y="623" width="157" height="156" filterUnits="userSpaceOnUse" color-interpolation-filters="sRGB">
<feFlood flood-opacity="0" result="BackgroundImageFix"/>
<feColorMatrix in="SourceAlpha" type="matrix" values="0 0 0 0 0 0 0 0 0 0 0 0 0 0 0 0 0 0 127 0" result="hardAlpha"/>
<feOffset dy="4"/>
<feGaussianBlur stdDeviation="2"/>
<feComposite in2="hardAlpha" operator="out"/>
<feColorMatrix type="matrix" values="0 0 0 0 0 0 0 0 0 0 0 0 0 0 0 0 0 0 0.25 0"/>
<feBlend mode="normal" in2="BackgroundImageFix" result="effect1_dropShadow_302_3390"/>
<feBlend mode="normal" in="SourceGraphic" in2="effect1_dropShadow_302_3390" result="shape"/>
</filter>
</defs>
</svg>
